<svg width="18" height="19" viewBox="0 0 18 19" fill="none" xmlns="http://www.w3.org/2000/svg">
<path fill-rule="evenodd" clip-rule="evenodd" d="M17.918 7.07037C17.918 3.16469 14.9193 0 11.2221 0C7.52161 0 4.52408 3.16469 4.52408 7.07037C4.52408 10.9737 7.52272 14.1384 11.2221 14.1384C14.9193 14.1384 17.918 10.9737 17.918 7.07037ZM5.55008 7.14756C5.55096 6.35465 5.69889 5.56969 5.98543 4.83756C6.27196 4.10542 6.69147 3.44045 7.22 2.88066C7.74852 2.32087 8.37569 1.87723 9.06565 1.5751C9.75562 1.27296 10.4949 1.11825 11.2411 1.11981C11.9871 1.11856 12.726 1.27352 13.4156 1.57583C14.1052 1.87813 14.7319 2.32186 15.26 2.88165C15.7881 3.44144 16.2072 4.10632 16.4934 4.83829C16.7795 5.57025 16.9271 6.35496 16.9277 7.14756C16.927 7.94006 16.7793 8.72464 16.4931 9.45647C16.2069 10.1883 15.7877 10.853 15.2596 11.4127C14.7315 11.9724 14.1048 12.416 13.4153 12.7182C12.7258 13.0205 11.987 13.1754 11.2411 13.1741C8.09719 13.1741 5.55008 10.4761 5.55008 7.14756Z" fill="#E3F3FF"/>
<path fill-rule="evenodd" clip-rule="evenodd" d="M2.07197 18.9573L0.035614 16.7936L4.54755 11.9985C4.54755 11.9985 4.65485 12.9069 5.19579 13.4793C5.7345 14.0541 6.58391 14.1633 6.58391 14.1633L2.07197 18.9573Z" fill="#E3F3FF"/>
<path fill-rule="evenodd" clip-rule="evenodd" d="M15.0099 6.02417C15.0099 6.70342 15.5016 6.44692 15.5016 5.50286C15.5016 3.87599 14.2621 2.55786 12.731 2.55786C11.8402 2.55786 11.5999 3.07917 12.2403 3.07917C12.6042 3.07933 12.9644 3.15563 13.3005 3.30371C13.6366 3.4518 13.942 3.66877 14.1991 3.94224C14.4563 4.21571 14.6603 4.54032 14.7994 4.89754C14.9385 5.25476 15.01 5.63759 15.0099 6.02417Z" fill="#E3F3FF"/>
</svg>
